<svg xmlns="http://www.w3.org/2000/svg" xmlns:xlink="http://www.w3.org/1999/xlink" width="300" zoomAndPan="magnify" viewBox="0 0 224.87999 149.999998" height="200" preserveAspectRatio="xMidYMid meet" version="1.0"><defs><g/><clipPath id="4b2d522a07"><path d="M 0 0.0390625 L 224.761719 0.0390625 L 224.761719 149.960938 L 0 149.960938 Z M 0 0.0390625 " clip-rule="nonzero"/></clipPath><clipPath id="4b119975cd"><path d="M 28.464844 121.132812 L 112.421875 121.132812 L 112.421875 127.878906 L 28.464844 127.878906 Z M 28.464844 121.132812 " clip-rule="nonzero"/></clipPath></defs><g clip-path="url(#4b2d522a07)"><path fill="#ffffff" d="M 0 0.0390625 L 224.878906 0.0390625 L 224.878906 157.457031 L 0 157.457031 Z M 0 0.0390625 " fill-opacity="1" fill-rule="nonzero"/><path fill="#ffffff" d="M 0 0.0390625 L 224.878906 0.0390625 L 224.878906 149.960938 L 0 149.960938 Z M 0 0.0390625 " fill-opacity="1" fill-rule="nonzero"/><path fill="#000000" d="M 0 0.0390625 L 224.878906 0.0390625 L 224.878906 149.960938 L 0 149.960938 Z M 0 0.0390625 " fill-opacity="1" fill-rule="nonzero"/></g><g fill="#ffffff" fill-opacity="1"><g transform="translate(28.479257, 113.784108)"><g><path d="M 4.191406 0 L 18.4375 0 L 28.179688 -28.285156 L 57.828125 -28.285156 L 67.675781 0 L 81.925781 0 L 72.078125 -28.285156 L 81.925781 -28.285156 L 77.210938 -41.695312 L 67.363281 -41.695312 L 49.449219 -93.34375 L 36.351562 -93.34375 Z M 32.792969 -41.695312 L 42.953125 -71.03125 L 53.117188 -41.695312 Z M 32.792969 -41.695312 "/></g></g></g><g fill="#ffffff" fill-opacity="1"><g transform="translate(114.590252, 113.784108)"><g><path d="M 15.296875 0.105469 L 28.707031 0.105469 L 28.707031 -36.980469 L 49.554688 -36.980469 C 65.058594 -36.980469 77.628906 -49.554688 77.628906 -65.058594 C 77.628906 -80.667969 65.058594 -93.238281 49.554688 -93.238281 L 4.191406 -93.238281 L 4.191406 -79.726562 L 15.296875 -79.726562 Z M 28.707031 -50.390625 L 28.707031 -79.726562 L 49.554688 -79.726562 C 57.621094 -79.726562 64.21875 -73.125 64.21875 -65.058594 C 64.21875 -56.992188 57.621094 -50.390625 49.554688 -50.390625 Z M 28.707031 -50.390625 "/></g></g></g><g clip-path="url(#4b119975cd)"><path fill="#ffffff" d="M 28.464844 121.15625 L 112.421875 121.15625 L 112.421875 127.859375 L 28.464844 127.859375 Z M 28.464844 121.15625 " fill-opacity="1" fill-rule="nonzero"/></g></svg>